<mxfile host="app.diagrams.net" modified="2021-03-21T19:19:29.621Z" agent="5.0 (Windows NT 10.0; Win64; x64) AppleWebKit/537.36 (KHTML, like Gecko) Chrome/89.0.4389.90 Safari/537.36" etag="7fdnv7vXeI9S_yBcKB1m" version="14.4.9" type="github">
  <diagram id="4DOZYZULpae04CoY8hZ3" name="Page-1">
    <mxGraphModel dx="1865" dy="580" grid="1" gridSize="10" guides="1" tooltips="1" connect="1" arrows="1" fold="1" page="1" pageScale="1" pageWidth="827" pageHeight="1169" math="0" shadow="0">
      <root>
        <mxCell id="0" />
        <mxCell id="1" parent="0" />
        <mxCell id="xERufU_nXvcKX3jVhLkJ-1" value="PROCESSO DI ELABORAZIONE DA PARTE &lt;br&gt;DEL BOT DI UNA RICHIESTA INFORMATIVA SOTTO FORMA DI COMANDO RELATIVAMENTE AD UN ATTIVITA&#39; DI PRIMO SOCCORSO" style="ellipse;whiteSpace=wrap;html=1;" parent="1" vertex="1">
          <mxGeometry x="260" y="420" width="290" height="180" as="geometry" />
        </mxCell>
        <mxCell id="xERufU_nXvcKX3jVhLkJ-2" value="UTENTE" style="rounded=0;whiteSpace=wrap;html=1;" parent="1" vertex="1">
          <mxGeometry x="130" y="220" width="120" height="60" as="geometry" />
        </mxCell>
        <mxCell id="xERufU_nXvcKX3jVhLkJ-3" value="" style="endArrow=classic;html=1;entryX=0.85;entryY=1.033;entryDx=0;entryDy=0;entryPerimeter=0;" parent="1" source="xERufU_nXvcKX3jVhLkJ-1" target="xERufU_nXvcKX3jVhLkJ-2" edge="1">
          <mxGeometry width="50" height="50" relative="1" as="geometry">
            <mxPoint x="390" y="320" as="sourcePoint" />
            <mxPoint x="440" y="270" as="targetPoint" />
          </mxGeometry>
        </mxCell>
        <mxCell id="xERufU_nXvcKX3jVhLkJ-10" value="RISPOSTA&amp;nbsp;&lt;br&gt;INFORMATIVA&lt;br&gt;RELATIVAMENTE&amp;nbsp;&lt;br&gt;ALL&#39;ATTIVITA&#39; DI&amp;nbsp;&lt;br&gt;PRIMO SOCCORSO DA&amp;nbsp;&lt;br&gt;SVOLGERE" style="edgeLabel;html=1;align=center;verticalAlign=middle;resizable=0;points=[];" parent="xERufU_nXvcKX3jVhLkJ-3" vertex="1" connectable="0">
          <mxGeometry x="0.2215" relative="1" as="geometry">
            <mxPoint x="-1" as="offset" />
          </mxGeometry>
        </mxCell>
        <mxCell id="xERufU_nXvcKX3jVhLkJ-7" value="COMANDO&amp;nbsp;&lt;br&gt;RELATIVO AD&amp;nbsp;&lt;br&gt;UNA RICHIESTA INFORMATIVA&amp;nbsp;&lt;br&gt;PER UN&#39;ATTIVITA&#39; DI&amp;nbsp;&lt;br&gt;&lt;div&gt;PRIMO SOCCORSO / FOTOGRAFIE &lt;br&gt;&lt;/div&gt;&lt;div&gt;DELLA PERSONA MESSA IN &lt;br&gt;&lt;/div&gt;&lt;div&gt;POSIZIONE DI SICUREZZA / &lt;br&gt;&lt;/div&gt;&lt;div&gt;LOCALIZZAZIONE DELLA PERSONA&lt;br&gt;&lt;/div&gt;" style="endArrow=classic;html=1;exitX=0.433;exitY=1.033;exitDx=0;exitDy=0;exitPerimeter=0;" parent="1" source="xERufU_nXvcKX3jVhLkJ-2" target="xERufU_nXvcKX3jVhLkJ-1" edge="1">
          <mxGeometry x="-0.0131" y="-36" width="50" height="50" relative="1" as="geometry">
            <mxPoint x="390" y="310" as="sourcePoint" />
            <mxPoint x="440" y="260" as="targetPoint" />
            <Array as="points">
              <mxPoint x="80" y="320" />
              <mxPoint x="80" y="360" />
              <mxPoint x="80" y="410" />
            </Array>
            <mxPoint x="-20" y="-14" as="offset" />
          </mxGeometry>
        </mxCell>
        <mxCell id="xERufU_nXvcKX3jVhLkJ-11" value="DB&amp;nbsp;&lt;br&gt;CONTENENTE INFORMAZIONI&amp;nbsp;&lt;br&gt;PRIMO SOCCORSO" style="shape=cylinder3;whiteSpace=wrap;html=1;boundedLbl=1;backgroundOutline=1;size=15;" parent="1" vertex="1">
          <mxGeometry x="710" y="630" width="100" height="130" as="geometry" />
        </mxCell>
        <mxCell id="xERufU_nXvcKX3jVhLkJ-12" value="" style="endArrow=classic;html=1;entryX=1.01;entryY=0.594;entryDx=0;entryDy=0;entryPerimeter=0;" parent="1" source="xERufU_nXvcKX3jVhLkJ-11" target="xERufU_nXvcKX3jVhLkJ-1" edge="1">
          <mxGeometry width="50" height="50" relative="1" as="geometry">
            <mxPoint x="390" y="420" as="sourcePoint" />
            <mxPoint x="440" y="370" as="targetPoint" />
            <Array as="points">
              <mxPoint x="760" y="527" />
            </Array>
          </mxGeometry>
        </mxCell>
        <mxCell id="xERufU_nXvcKX3jVhLkJ-13" value="&lt;div&gt;INFORMAZIONI&lt;/div&gt;&lt;div&gt;RICHIESTE&lt;br&gt;&lt;/div&gt;" style="edgeLabel;html=1;align=center;verticalAlign=middle;resizable=0;points=[];" parent="xERufU_nXvcKX3jVhLkJ-12" vertex="1" connectable="0">
          <mxGeometry x="0.356" y="-1" relative="1" as="geometry">
            <mxPoint as="offset" />
          </mxGeometry>
        </mxCell>
        <mxCell id="xERufU_nXvcKX3jVhLkJ-14" value="" style="endArrow=classic;html=1;entryX=0;entryY=0.554;entryDx=0;entryDy=0;entryPerimeter=0;exitX=0.797;exitY=0.906;exitDx=0;exitDy=0;exitPerimeter=0;" parent="1" source="xERufU_nXvcKX3jVhLkJ-1" target="xERufU_nXvcKX3jVhLkJ-11" edge="1">
          <mxGeometry width="50" height="50" relative="1" as="geometry">
            <mxPoint x="390" y="610" as="sourcePoint" />
            <mxPoint x="440" y="560" as="targetPoint" />
            <Array as="points">
              <mxPoint x="490" y="702" />
            </Array>
          </mxGeometry>
        </mxCell>
        <mxCell id="xERufU_nXvcKX3jVhLkJ-17" value="&lt;div&gt;QUERY DI RICHIESTA&lt;br&gt;&lt;/div&gt;INFORMATIVA&amp;nbsp;&lt;br&gt;AL DB" style="edgeLabel;html=1;align=center;verticalAlign=middle;resizable=0;points=[];" parent="xERufU_nXvcKX3jVhLkJ-14" vertex="1" connectable="0">
          <mxGeometry x="-0.1284" y="-1" relative="1" as="geometry">
            <mxPoint as="offset" />
          </mxGeometry>
        </mxCell>
        <mxCell id="xERufU_nXvcKX3jVhLkJ-18" value="&lt;div&gt;ALGORITMO DI AI PER &lt;br&gt;&lt;/div&gt;&lt;div&gt;CONTROLLO POSIZIONE DI &lt;br&gt;&lt;/div&gt;&lt;div&gt;SICUREZZA&lt;br&gt;&lt;/div&gt;" style="ellipse;shape=cloud;whiteSpace=wrap;html=1;" parent="1" vertex="1">
          <mxGeometry x="610" y="140" width="210" height="130" as="geometry" />
        </mxCell>
        <mxCell id="xERufU_nXvcKX3jVhLkJ-19" value="" style="endArrow=classic;html=1;entryX=0.921;entryY=0.206;entryDx=0;entryDy=0;entryPerimeter=0;exitX=0.13;exitY=0.77;exitDx=0;exitDy=0;exitPerimeter=0;" parent="1" source="xERufU_nXvcKX3jVhLkJ-18" target="xERufU_nXvcKX3jVhLkJ-1" edge="1">
          <mxGeometry width="50" height="50" relative="1" as="geometry">
            <mxPoint x="390" y="580" as="sourcePoint" />
            <mxPoint x="440" y="530" as="targetPoint" />
          </mxGeometry>
        </mxCell>
        <mxCell id="xERufU_nXvcKX3jVhLkJ-20" value="&lt;div&gt;FLAG POSIZIONE DI SICUREZZA &lt;br&gt;&lt;/div&gt;&lt;div&gt;ESEGUITA IN MANIERA&lt;/div&gt;&lt;div&gt; CORRETTA/ NON CORRETTA&lt;br&gt;&lt;/div&gt;" style="edgeLabel;html=1;align=center;verticalAlign=middle;resizable=0;points=[];" parent="xERufU_nXvcKX3jVhLkJ-19" vertex="1" connectable="0">
          <mxGeometry x="-0.3983" y="3" relative="1" as="geometry">
            <mxPoint y="1" as="offset" />
          </mxGeometry>
        </mxCell>
        <mxCell id="xERufU_nXvcKX3jVhLkJ-23" value="" style="endArrow=classic;html=1;entryX=0.55;entryY=0.95;entryDx=0;entryDy=0;entryPerimeter=0;exitX=1;exitY=0.5;exitDx=0;exitDy=0;" parent="1" source="xERufU_nXvcKX3jVhLkJ-1" target="xERufU_nXvcKX3jVhLkJ-18" edge="1">
          <mxGeometry width="50" height="50" relative="1" as="geometry">
            <mxPoint x="390" y="550" as="sourcePoint" />
            <mxPoint x="440" y="500" as="targetPoint" />
            <Array as="points">
              <mxPoint x="726" y="510" />
            </Array>
          </mxGeometry>
        </mxCell>
        <mxCell id="xERufU_nXvcKX3jVhLkJ-24" value="&lt;div&gt;FOTOGRAFIA PERSONA IN &lt;br&gt;&lt;/div&gt;&lt;div&gt;POSIZIONE DI SICUREZZA&lt;br&gt;&lt;/div&gt;" style="edgeLabel;html=1;align=center;verticalAlign=middle;resizable=0;points=[];" parent="xERufU_nXvcKX3jVhLkJ-23" vertex="1" connectable="0">
          <mxGeometry x="0.335" relative="1" as="geometry">
            <mxPoint as="offset" />
          </mxGeometry>
        </mxCell>
        <mxCell id="0WMNMOKawaj5CBC27g7i-1" value="OPERATORE 112" style="rounded=0;whiteSpace=wrap;html=1;" vertex="1" parent="1">
          <mxGeometry x="130" y="680" width="120" height="60" as="geometry" />
        </mxCell>
        <mxCell id="0WMNMOKawaj5CBC27g7i-2" value="" style="endArrow=classic;html=1;exitX=0.062;exitY=-0.017;exitDx=0;exitDy=0;entryX=0.068;entryY=0.777;entryDx=0;entryDy=0;entryPerimeter=0;exitPerimeter=0;" edge="1" parent="1" source="0WMNMOKawaj5CBC27g7i-1" target="xERufU_nXvcKX3jVhLkJ-1">
          <mxGeometry width="50" height="50" relative="1" as="geometry">
            <mxPoint x="110" y="520" as="sourcePoint" />
            <mxPoint x="160" y="470" as="targetPoint" />
            <Array as="points">
              <mxPoint x="137" y="560" />
            </Array>
          </mxGeometry>
        </mxCell>
        <mxCell id="0WMNMOKawaj5CBC27g7i-3" value="RICHIESTA INFORMAZIONI &lt;br&gt;SITUAZIONE DI EMERGENZA&amp;nbsp;" style="edgeLabel;html=1;align=center;verticalAlign=middle;resizable=0;points=[];" vertex="1" connectable="0" parent="0WMNMOKawaj5CBC27g7i-2">
          <mxGeometry x="-0.326" y="-1" relative="1" as="geometry">
            <mxPoint x="-1" as="offset" />
          </mxGeometry>
        </mxCell>
        <mxCell id="0WMNMOKawaj5CBC27g7i-4" value="" style="endArrow=classic;html=1;exitX=0.22;exitY=0.932;exitDx=0;exitDy=0;exitPerimeter=0;" edge="1" parent="1" source="xERufU_nXvcKX3jVhLkJ-1" target="0WMNMOKawaj5CBC27g7i-1">
          <mxGeometry width="50" height="50" relative="1" as="geometry">
            <mxPoint x="110" y="520" as="sourcePoint" />
            <mxPoint x="160" y="470" as="targetPoint" />
            <Array as="points">
              <mxPoint x="324" y="708" />
            </Array>
          </mxGeometry>
        </mxCell>
        <mxCell id="0WMNMOKawaj5CBC27g7i-5" value="IINFORMAZIONI&amp;nbsp;&lt;br&gt;SITUAZIONE DI EMERGENZA" style="edgeLabel;html=1;align=center;verticalAlign=middle;resizable=0;points=[];" vertex="1" connectable="0" parent="0WMNMOKawaj5CBC27g7i-4">
          <mxGeometry x="-0.2824" y="-1" relative="1" as="geometry">
            <mxPoint as="offset" />
          </mxGeometry>
        </mxCell>
      </root>
    </mxGraphModel>
  </diagram>
</mxfile>
